<?xml version="1.0" encoding="UTF-8" standalone="no"?>
<!-- Created with Inkscape (http://www.inkscape.org/) -->

<svg
   width="88.567001mm"
   height="88.567001mm"
   version="1.1"
   viewBox="0 0 88.567 88.567"
   id="svg111"
   xmlns="http://www.w3.org/2000/svg"
   xmlns:svg="http://www.w3.org/2000/svg">
  <defs
     id="defs115" />
  <g
     transform="translate(-216.22,-106.73)"
     id="g109">
    <g
       transform="matrix(0.13559,0,0,0.13559,595.63,-1889.9)"
       id="g107">
      <path
         id="rect87"
         style="fill:#c2bfc1"
         d="m -2707.1841,14726 h 470.9781 c 50.4782,0 91.116,40.638 91.116,91.116 v 470.978 c 0,50.478 -40.6378,91.116 -91.116,91.116 h -470.9781 c -50.4782,0 -91.1159,-40.638 -91.1159,-91.116 v -470.978 c 0,-50.478 40.6377,-91.116 91.1159,-91.116 z" />
      <path
         id="circle89"
         style="fill:#313131"
         d="m -2186.5599,15052 a 285.14001,285.14001 0 0 1 -285.1401,285.14 285.14001,285.14001 0 0 1 -285.14,-285.14 285.14001,285.14001 0 0 1 285.14,-285.14 285.14001,285.14001 0 0 1 285.1401,285.14 z" />
      <g
         transform="matrix(0,-1.6306,1.6306,0,-2678.9,15146)"
         fill="#e3dbde"
         stroke="#313131"
         stroke-width="9.199"
         id="g105">
        <g
           transform="rotate(45,412.31,-40.857)"
           fill="#e3dbde"
           stroke="#313131"
           stroke-miterlimit="10"
           stroke-width="9.199"
           id="g103">
          <path
             d="m 311.21,313.79 h 50 c 27.613,0 50,-22.387 50,-50 h -100 v 50"
             id="path91" />
          <path
             d="m 261.21,363.79 h 50 c 27.613,0 50,-22.387 50,-50 h -100 v 50"
             id="path93" />
          <path
             d="m 211.21,413.79 h 50 c 27.613,0 50,-22.387 50,-50 h -100 v 50"
             id="path95" />
          <path
             d="m 161.21,413.79 h 50 v -100 c -27.613,0 -50,22.387 -50,50 v 50"
             id="path97" />
          <path
             d="m 211.21,363.79 h 50 v -100 c -27.613,0 -50,22.387 -50,50 v 50"
             id="path99" />
          <path
             d="m 261.21,313.79 h 50 v -50 h -50 v 50"
             id="path101" />
        </g>
      </g>
    </g>
  </g>
</svg>
